<svg xmlns="http://www.w3.org/2000/svg" xmlns:xlink="http://www.w3.org/1999/xlink" aria-hidden="true" role="img" class="iconify iconify--logos" width="31.88" height="32" preserveAspectRatio="xMidYMid meet" viewBox="0 0 256 257"><defs><linearGradient id="IconifyId1813088fe1fbc01fb466" x1="-.828%" x2="57.636%" y1="7.652%" y2="78.411%"><stop offset="0%" stop-color="#FF00DC"></stop><stop offset="100%" stop-color="#FF5E00"></stop></linearGradient></defs><path fill="url(#IconifyId1813088fe1fbc01fb466)" d="M185.432.063F92.307 0a.069.069 0 0 0-.023.005l-.021.003-.021.005-.019.008-.02.013-.018.02-.016.027-.015.033-.011.047-.009.059-.008.073v10.745h-77.5V1.412a.145.145 0 0 0-.148-.144H1.48a.145.145 0 0 0-.144.144v254.169c0 .08.040.15.1.19.06.04.139.056.219.047h92.497a.145.145 0 0 0 .144-.145V179.032h77.5v75.52c0 .088.056.164.135.190.08.026.164.008.224-.05.026-.025.044-.056.053-.090l.003-.013.001-.01v.002l.236-254.282a.145.145 0 0 0-.146-.144z"></path></svg>
